<svg width="32" height="32" viewBox="0 0 32 32" fill="none" xmlns="http://www.w3.org/2000/svg">
<path d="M14.6666 2.66675V9.33341H11.9999V2.66675H14.6666ZM9.33325 4.00008V9.33341H6.66659V4.00008H9.33325ZM19.9999 4.00008V9.33341H17.3333V4.00008H19.9999ZM3.90259 10.6667H27.9999V17.3334C27.9999 18.7479 27.438 20.1045 26.4378 21.1047C25.4376 22.1048 24.0811 22.6667 22.6666 22.6667H21.4226C20.7058 24.3179 19.5049 25.7127 17.9786 26.6667H26.6666V29.3334H3.99992V26.6667H8.67459C7.51434 25.9433 6.53863 24.9594 5.82486 23.7932C5.1111 22.627 4.67891 21.3104 4.56259 19.9481V19.9387L3.90259 10.6667ZM22.0999 20.0001H22.6666C23.3738 20.0001 24.0521 19.7191 24.5522 19.219C25.0523 18.7189 25.3333 18.0407 25.3333 17.3334V13.3334H22.5759L22.1053 19.9387V19.9481L22.0999 20.0001ZM19.9026 13.3334H6.76525L7.21992 19.7294C7.35333 21.2589 8.05513 22.6828 9.18684 23.7202C10.3186 24.7576 11.798 25.3332 13.3333 25.3334C16.0786 25.3334 18.4479 23.4934 19.2159 20.9481C19.3359 20.5547 19.4093 20.1654 19.4466 19.7294L19.9026 13.3334Z" fill="white"/>
</svg>
