<svg width="32" height="32" viewBox="0 0 32 32" fill="none" xmlns="http://www.w3.org/2000/svg">
<path d="M21.3335 14.6667C23.5468 14.6667 25.3202 12.8801 25.3202 10.6667C25.3202 8.45341 23.5468 6.66675 21.3335 6.66675C19.1202 6.66675 17.3335 8.45341 17.3335 10.6667C17.3335 12.8801 19.1202 14.6667 21.3335 14.6667ZM10.6668 14.6667C12.8802 14.6667 14.6535 12.8801 14.6535 10.6667C14.6535 8.45341 12.8802 6.66675 10.6668 6.66675C8.4535 6.66675 6.66683 8.45341 6.66683 10.6667C6.66683 12.8801 8.4535 14.6667 10.6668 14.6667ZM10.6668 17.3334C7.56016 17.3334 1.3335 18.8934 1.3335 22.0001V25.3334H20.0002V22.0001C20.0002 18.8934 13.7735 17.3334 10.6668 17.3334ZM21.3335 17.3334C20.9468 17.3334 20.5068 17.3601 20.0402 17.4001C21.5868 18.5201 22.6668 20.0267 22.6668 22.0001V25.3334H30.6668V22.0001C30.6668 18.8934 24.4402 17.3334 21.3335 17.3334Z" fill="white"/>
</svg>
