<svg width="48" height="46" viewBox="0 0 48 46" fill="none" xmlns="http://www.w3.org/2000/svg">
<g id="Icon48 / Arrow2 / Right">
<path id="Fill 1" fill-rule="evenodd" clip-rule="evenodd" d="M27.083 7.8441C26.854 7.61506 26.474 7.60643 26.235 7.82589C25.996 8.04631 25.987 8.41047 26.217 8.63952L40 22.4309C39.991 22.4299 39.983 22.4251 39.974 22.4251H6.6C6.269 22.4251 6 22.682 6 22.9992C6 23.3173 6.269 23.5742 6.6 23.5742H39.974C39.983 23.5742 39.991 23.5694 40 23.5684L26.217 37.3598C25.987 37.5888 25.996 37.953 26.235 38.1725C26.351 38.2798 26.5 38.3316 26.65 38.3316C26.808 38.3316 26.965 38.2731 27.083 38.1552L41.833 23.3969C42.056 23.1746 42.056 22.8248 41.833 22.6015L27.083 7.8441Z" fill="#343434"/>
</g>
</svg>
