<svg width="32" height="32" viewBox="0 0 32 32" fill="none" xmlns="http://www.w3.org/2000/svg">
<path d="M4 7.75C4 7.55109 4.07902 7.36032 4.21967 7.21967C4.36032 7.07902 4.55109 7 4.75 7H7C7.1673 7.00005 7.32977 7.05603 7.4616 7.15904C7.59342 7.26205 7.68701 7.40618 7.7275 7.5685L8.335 10H25.75C25.8639 10 25.9763 10.026 26.0787 10.076C26.1811 10.1259 26.2708 10.1986 26.3409 10.2884C26.411 10.3781 26.4597 10.4827 26.4834 10.5942C26.5071 10.7056 26.5051 10.821 26.4775 10.9315L24.2275 19.9315C24.187 20.0938 24.0934 20.238 23.9616 20.341C23.8298 20.444 23.6673 20.5 23.5 20.5H10C9.8327 20.5 9.67022 20.444 9.5384 20.341C9.40658 20.238 9.31299 20.0938 9.2725 19.9315L6.415 8.5H4.75C4.55109 8.5 4.36032 8.42098 4.21967 8.28033C4.07902 8.13968 4 7.94891 4 7.75ZM8.71 11.5L9.46 14.5H11.5V11.5H8.71ZM13 11.5V14.5H16V11.5H13ZM17.5 11.5V14.5H20.5V11.5H17.5ZM22 11.5V14.5H24.04L24.79 11.5H22ZM23.665 16H22V19H22.915L23.665 16ZM20.5 16H17.5V19H20.5V16ZM16 16H13V19H16V16ZM11.5 16H9.835L10.585 19H11.5V16ZM11.5 23.5C11.1022 23.5 10.7206 23.658 10.4393 23.9393C10.158 24.2206 10 24.6022 10 25C10 25.3978 10.158 25.7794 10.4393 26.0607C10.7206 26.342 11.1022 26.5 11.5 26.5C11.8978 26.5 12.2794 26.342 12.5607 26.0607C12.842 25.7794 13 25.3978 13 25C13 24.6022 12.842 24.2206 12.5607 23.9393C12.2794 23.658 11.8978 23.5 11.5 23.5ZM8.5 25C8.5 24.2044 8.81607 23.4413 9.37868 22.8787C9.94129 22.3161 10.7043 22 11.5 22C12.2956 22 13.0587 22.3161 13.6213 22.8787C14.1839 23.4413 14.5 24.2044 14.5 25C14.5 25.7956 14.1839 26.5587 13.6213 27.1213C13.0587 27.6839 12.2956 28 11.5 28C10.7043 28 9.94129 27.6839 9.37868 27.1213C8.81607 26.5587 8.5 25.7956 8.5 25ZM22 23.5C21.6022 23.5 21.2206 23.658 20.9393 23.9393C20.658 24.2206 20.5 24.6022 20.5 25C20.5 25.3978 20.658 25.7794 20.9393 26.0607C21.2206 26.342 21.6022 26.5 22 26.5C22.3978 26.5 22.7794 26.342 23.0607 26.0607C23.342 25.7794 23.5 25.3978 23.5 25C23.5 24.6022 23.342 24.2206 23.0607 23.9393C22.7794 23.658 22.3978 23.5 22 23.5ZM19 25C19 24.2044 19.3161 23.4413 19.8787 22.8787C20.4413 22.3161 21.2043 22 22 22C22.7956 22 23.5587 22.3161 24.1213 22.8787C24.6839 23.4413 25 24.2044 25 25C25 25.7956 24.6839 26.5587 24.1213 27.1213C23.5587 27.6839 22.7956 28 22 28C21.2043 28 20.4413 27.6839 19.8787 27.1213C19.3161 26.5587 19 25.7956 19 25Z" fill="#343434"/>
</svg>
