<svg width="48" height="48" viewBox="0 0 48 48" fill="none" xmlns="http://www.w3.org/2000/svg">
<path d="M6 11.625C6 11.3266 6.11853 11.0405 6.3295 10.8295C6.54048 10.6185 6.82663 10.5 7.125 10.5H10.5C10.7509 10.5001 10.9947 10.584 11.1924 10.7386C11.3901 10.8931 11.5305 11.1093 11.5912 11.3527L12.5025 15H38.625C38.7959 15 38.9645 15.039 39.1181 15.114C39.2717 15.1889 39.4061 15.2979 39.5113 15.4325C39.6165 15.5672 39.6896 15.7241 39.7251 15.8912C39.7606 16.0584 39.7576 16.2314 39.7162 16.3972L36.3412 29.8973C36.2805 30.1407 36.1401 30.3569 35.9424 30.5114C35.7447 30.666 35.5009 30.7499 35.25 30.75H15C14.7491 30.7499 14.5053 30.666 14.3076 30.5114C14.1099 30.3569 13.9695 30.1407 13.9087 29.8973L9.6225 12.75H7.125C6.82663 12.75 6.54048 12.6315 6.3295 12.4205C6.11853 12.2095 6 11.9234 6 11.625ZM13.065 17.25L14.19 21.75H17.25V17.25H13.065ZM19.5 17.25V21.75H24V17.25H19.5ZM26.25 17.25V21.75H30.75V17.25H26.25ZM33 17.25V21.75H36.06L37.185 17.25H33ZM35.4975 24H33V28.5H34.3725L35.4975 24ZM30.75 24H26.25V28.5H30.75V24ZM24 24H19.5V28.5H24V24ZM17.25 24H14.7525L15.8775 28.5H17.25V24ZM17.25 35.25C16.6533 35.25 16.081 35.4871 15.659 35.909C15.2371 36.331 15 36.9033 15 37.5C15 38.0967 15.2371 38.669 15.659 39.091C16.081 39.5129 16.6533 39.75 17.25 39.75C17.8467 39.75 18.419 39.5129 18.841 39.091C19.2629 38.669 19.5 38.0967 19.5 37.5C19.5 36.9033 19.2629 36.331 18.841 35.909C18.419 35.4871 17.8467 35.25 17.25 35.25ZM12.75 37.5C12.75 36.3065 13.2241 35.1619 14.068 34.318C14.9119 33.4741 16.0565 33 17.25 33C18.4435 33 19.5881 33.4741 20.432 34.318C21.2759 35.1619 21.75 36.3065 21.75 37.5C21.75 38.6935 21.2759 39.8381 20.432 40.682C19.5881 41.5259 18.4435 42 17.25 42C16.0565 42 14.9119 41.5259 14.068 40.682C13.2241 39.8381 12.75 38.6935 12.75 37.5ZM33 35.25C32.4033 35.25 31.831 35.4871 31.409 35.909C30.987 36.331 30.75 36.9033 30.75 37.5C30.75 38.0967 30.987 38.669 31.409 39.091C31.831 39.5129 32.4033 39.75 33 39.75C33.5967 39.75 34.169 39.5129 34.591 39.091C35.0129 38.669 35.25 38.0967 35.25 37.5C35.25 36.9033 35.0129 36.331 34.591 35.909C34.169 35.4871 33.5967 35.25 33 35.25ZM28.5 37.5C28.5 36.3065 28.9741 35.1619 29.818 34.318C30.6619 33.4741 31.8065 33 33 33C34.1935 33 35.3381 33.4741 36.182 34.318C37.0259 35.1619 37.5 36.3065 37.5 37.5C37.5 38.6935 37.0259 39.8381 36.182 40.682C35.3381 41.5259 34.1935 42 33 42C31.8065 42 30.6619 41.5259 29.818 40.682C28.9741 39.8381 28.5 38.6935 28.5 37.5Z" fill="white"/>
</svg>
