<svg width="700" height="700" viewBox="0 0 700 700" fill="none" xmlns="http://www.w3.org/2000/svg">
<path d="M582.022 155.288L579.054 150.458C554.05 109.774 508.844 85.246 461.188 88.2C455.069 88.587 448.987 89.4152 442.988 90.678C399.658 99.834 361.956 132.202 346.388 173.642C337.204 198.016 334.628 226.072 317.184 245.42C294.49 270.62 255.948 271.39 222.068 270.354C188.188 269.318 149.618 270.2 127.022 295.47C112.868 311.304 108.374 333.816 109.522 355.012C112.546 411.138 152.152 461.328 202.524 486.276C252.896 511.224 312.2 513.464 367.332 502.488C444.556 487.088 518 444.892 562.142 379.694C606.284 314.496 617.4 225.666 582.022 155.288Z" fill="#EBEBEB"/>
<path d="M650.524 643.09C650.524 643.3 515.956 643.454 350.014 643.454C184.072 643.454 49.4756 643.3 49.4756 643.09C49.4756 642.88 184.016 642.726 350.014 642.726C516.012 642.726 650.524 642.894 650.524 643.09Z" fill="#263238"/>
<path d="M607.278 606.452C607.343 606.248 607.427 606.051 607.53 605.864C607.726 605.444 607.992 604.884 608.314 604.17C609.288 601.983 610.071 599.716 610.652 597.394C612.192 591.374 612.738 582.176 610.456 571.256C609.217 565.301 607.594 559.432 605.598 553.686C603.554 547.456 601.16 540.848 599.214 533.694C597.017 526.233 595.955 518.483 596.064 510.706C596.358 502.572 598.766 494.466 601.412 486.374C604.058 478.282 606.788 470.4 607.6 462.42C608.503 454.768 606.964 447.026 603.204 440.3C599.704 433.846 595.294 428.316 592.004 422.604C588.924 417.296 586.655 411.558 585.27 405.58C583.284 396.924 583.136 387.948 584.836 379.232C585.456 376.043 586.394 372.924 587.636 369.922C587.599 370.132 587.543 370.338 587.468 370.538L586.908 372.316C586.432 373.884 585.802 376.236 585.2 379.316C583.635 387.993 583.869 396.899 585.886 405.482C587.291 411.388 589.57 417.05 592.648 422.282C595.938 427.882 600.362 433.482 603.946 439.964C607.798 446.826 609.381 454.73 608.468 462.546C607.642 470.638 604.898 478.604 602.252 486.682C599.606 494.76 597.226 502.782 596.932 510.776C596.807 518.476 597.846 526.15 600.012 533.54C601.93 540.652 604.282 547.26 606.312 553.518C608.289 559.295 609.88 565.198 611.072 571.186C613.298 582.19 612.668 591.486 611.072 597.52C610.448 599.847 609.609 602.11 608.566 604.282L607.698 605.948C607.578 606.131 607.437 606.3 607.278 606.452Z" fill="#263238"/>
<path d="M596.485 428.246C596.485 428.246 589.793 406.812 601.805 394.268C601.898 394.167 602.017 394.094 602.149 394.057C602.282 394.02 602.422 394.02 602.554 394.058C602.686 394.096 602.805 394.169 602.897 394.271C602.99 394.372 603.053 394.497 603.079 394.632C603.723 398.174 604.521 408.954 596.485 428.246Z" fill="#FFDE4E"/>
<path d="M600.503 401.408C600.481 402.735 600.331 404.058 600.055 405.356C599.607 408.086 599.089 411.278 598.529 414.806C597.969 418.334 597.451 421.54 597.017 424.256C596.894 425.58 596.66 426.891 596.317 428.176C596.185 426.852 596.213 425.517 596.401 424.2C596.625 421.75 597.059 418.39 597.661 414.694C598.263 410.998 598.921 407.694 599.439 405.272C599.643 403.947 600 402.651 600.503 401.408Z" fill="#263238"/>
<path d="M604.353 478.8C604.353 478.8 608.455 456.722 624.947 451.262C625.077 451.217 625.217 451.208 625.351 451.238C625.485 451.268 625.609 451.334 625.708 451.43C625.807 451.526 625.877 451.648 625.91 451.781C625.944 451.914 625.94 452.055 625.899 452.186C624.807 455.588 620.481 465.486 604.353 478.8Z" fill="#FFDE4E"/>
<path d="M620.452 456.932C619.813 458.098 619.063 459.2 618.212 460.222L612.43 467.852L606.69 475.51C605.968 476.621 605.148 477.666 604.24 478.632C604.751 477.4 605.41 476.234 606.2 475.16C607.6 473.102 609.504 470.33 611.8 467.348C614.096 464.366 616.182 461.748 617.764 459.844C618.551 458.778 619.452 457.801 620.452 456.932Z" fill="#263238"/>
<path d="M599.901 534.142C599.901 534.142 597.409 511.826 611.605 501.816C611.714 501.73 611.846 501.678 611.984 501.665C612.122 501.651 612.261 501.678 612.385 501.741C612.509 501.805 612.612 501.902 612.682 502.022C612.752 502.142 612.786 502.279 612.781 502.418C612.739 506.016 611.465 516.74 599.901 534.142Z" fill="#FFDE4E"/>
<path d="M609 508.564C608.74 509.867 608.341 511.139 607.81 512.358L604.506 521.346C603.274 524.706 602.168 527.744 601.23 530.334C600.871 531.609 600.403 532.85 599.83 534.044C599.96 532.716 600.251 531.409 600.698 530.152C601.384 527.8 602.448 524.552 603.75 521.052C605.052 517.552 606.326 514.402 607.292 512.148C607.738 510.898 608.31 509.697 609 508.564Z" fill="#263238"/>
<path d="M612.318 589.834C612.318 589.834 610.638 567.434 625.17 557.942C625.284 557.864 625.417 557.819 625.555 557.812C625.693 557.805 625.83 557.837 625.95 557.904C626.071 557.971 626.171 558.07 626.238 558.191C626.306 558.311 626.338 558.448 626.332 558.586C626.164 562.184 624.512 572.866 612.318 589.834Z" fill="#FFDE4E"/>
<path d="M622.286 564.606C621.973 565.899 621.527 567.156 620.956 568.358C619.92 570.906 618.688 573.958 617.33 577.22C615.972 580.482 614.782 583.52 613.746 586.082C613.331 587.346 612.802 588.569 612.164 589.736C612.35 588.412 612.693 587.115 613.186 585.872C613.956 583.548 615.132 580.356 616.56 576.898C617.988 573.44 619.36 570.332 620.41 568.12C620.909 566.885 621.537 565.707 622.286 564.606Z" fill="#263238"/>
<path d="M586.852 409.416C586.852 409.416 567 399 566.566 381.654C566.565 381.518 566.601 381.384 566.669 381.267C566.738 381.149 566.837 381.052 566.956 380.986C567.075 380.921 567.209 380.888 567.345 380.892C567.481 380.896 567.614 380.937 567.728 381.01C570.682 383.054 578.886 390.11 586.852 409.416Z" fill="#FFDE4E"/>
<path d="M570.696 387.618C571.628 388.57 572.459 389.616 573.174 390.74C574.798 392.966 576.688 395.598 578.774 398.496L584.374 406.224C585.227 407.24 585.986 408.332 586.642 409.486C585.618 408.634 584.702 407.661 583.912 406.588C582.33 404.712 580.258 402.024 578.074 398.986C575.89 395.948 573.972 393.134 572.656 391.076C571.885 389.995 571.228 388.836 570.696 387.618Z" fill="#263238"/>
<path d="M608.231 455.434C608.231 455.434 587.735 446.264 586.293 428.946C586.281 428.81 586.307 428.673 586.368 428.551C586.429 428.429 586.523 428.326 586.639 428.254C586.755 428.181 586.888 428.142 587.025 428.141C587.161 428.14 587.295 428.176 587.413 428.246C590.479 430.108 599.089 436.632 608.231 455.434Z" fill="#FFDE4E"/>
<path d="M590.801 434.658C591.788 435.547 592.68 436.537 593.461 437.612L599.537 445.018L605.627 452.396C606.539 453.362 607.364 454.406 608.091 455.518C607.017 454.725 606.039 453.809 605.179 452.788C603.499 450.996 601.259 448.448 598.893 445.55C596.527 442.652 594.455 439.95 592.999 437.976C592.146 436.955 591.408 435.842 590.801 434.658Z" fill="#263238"/>
<path d="M596.401 506.8C596.401 506.8 582.401 489.3 588.939 473.2C588.99 473.074 589.076 472.964 589.186 472.883C589.296 472.802 589.426 472.753 589.562 472.742C589.698 472.73 589.835 472.756 589.957 472.817C590.079 472.879 590.182 472.972 590.254 473.088C592.2 476.126 596.863 485.87 596.401 506.8Z" fill="#FFDE4E"/>
<path d="M590.353 480.312C590.831 481.556 591.179 482.846 591.389 484.162C591.977 486.85 592.663 490.014 593.419 493.514C594.175 497.014 594.889 500.164 595.477 502.852C595.851 504.128 596.109 505.435 596.247 506.758C595.632 505.568 595.162 504.308 594.847 503.006C594.161 500.64 593.321 497.406 592.537 493.682C591.753 489.958 591.137 486.682 590.745 484.274C590.469 482.972 590.338 481.643 590.353 480.312Z" fill="#263238"/>
<path d="M610.401 567.154C610.401 567.154 590.059 557.648 588.911 540.316C588.897 540.178 588.923 540.039 588.984 539.914C589.046 539.79 589.141 539.685 589.259 539.612C589.378 539.539 589.514 539.501 589.653 539.502C589.791 539.502 589.927 539.542 590.045 539.616C593.055 541.534 601.553 548.212 610.401 567.154Z" fill="#FFDE4E"/>
<path d="M593.278 546.084C594.24 547.002 595.112 548.01 595.882 549.094L601.832 556.584L607.796 564.074C608.693 565.054 609.499 566.113 610.204 567.238C609.162 566.421 608.222 565.48 607.404 564.438C605.738 562.618 603.554 560.028 601.23 557.088C598.906 554.148 596.89 551.418 595.462 549.416C594.607 548.394 593.874 547.276 593.278 546.084Z" fill="#263238"/>
<path d="M650.874 478.898C650.874 478.898 650.874 479.066 650.874 479.388C650.874 479.71 650.874 480.242 650.874 480.788C650.874 482.188 650.734 483.966 650.636 486.234C650.384 491.022 650.006 497.7 649.572 505.68C648.172 513.8 643.972 522.802 638.372 531.552C634.298 537.992 629.972 543.844 626.332 549.29C623.01 554.069 620.025 559.075 617.4 564.27C615.662 567.78 614.256 571.446 613.2 575.218C612.85 576.548 612.57 577.598 612.416 578.312C612.35 578.684 612.252 579.049 612.122 579.404C612.127 579.027 612.174 578.651 612.262 578.284C612.36 577.556 612.57 576.492 612.892 575.134C613.834 571.296 615.171 567.566 616.882 564.004C619.484 558.768 622.465 553.728 625.8 548.926C629.468 543.438 633.71 537.572 637.77 531.174C643.3 522.466 647.416 513.604 648.97 505.61C649.53 497.644 649.992 490.98 650.37 486.192C650.552 483.924 650.706 482.118 650.818 480.76C650.818 480.2 650.916 479.724 650.958 479.36C650.911 479.21 650.882 479.055 650.874 478.898Z" fill="#263238"/>
<path d="M638.764 529.942C638.764 529.942 647.374 509.222 636.552 495.628C636.468 495.519 636.356 495.436 636.227 495.387C636.098 495.338 635.958 495.326 635.823 495.352C635.688 495.379 635.563 495.442 635.462 495.535C635.361 495.628 635.287 495.748 635.25 495.88C634.284 499.352 632.506 510.006 638.764 529.942Z" fill="#FFDE4E"/>
<path d="M637.197 502.866C637.568 504.144 637.798 505.458 637.883 506.786C638.191 509.222 638.527 512.596 638.793 516.334C639.059 520.072 639.185 523.46 639.185 525.924C639.269 527.254 639.189 528.589 638.947 529.9C638.705 528.593 638.588 527.267 638.597 525.938C638.415 523.138 638.191 519.96 637.953 516.39C637.715 512.82 637.491 509.586 637.295 506.842C637.132 505.523 637.099 504.191 637.197 502.866Z" fill="#263238"/>
<g opacity="0.3">
<path d="M638.764 529.942C638.764 529.942 647.374 509.222 636.552 495.628C636.468 495.519 636.356 495.436 636.227 495.387C636.098 495.338 635.958 495.326 635.823 495.352C635.688 495.379 635.563 495.442 635.462 495.535C635.361 495.628 635.287 495.748 635.25 495.88C634.284 499.352 632.506 510.006 638.764 529.942Z" fill="black"/>
</g>
<path d="M612.094 579.908C612.094 579.908 618.997 558.544 607.097 545.888C607.004 545.787 606.886 545.714 606.755 545.676C606.623 545.638 606.484 545.637 606.352 545.673C606.221 545.709 606.101 545.781 606.008 545.881C605.914 545.981 605.85 546.104 605.823 546.238C605.151 549.766 604.24 560.546 612.094 579.908Z" fill="#FFDE4E"/>
<path d="M608.328 553C608.813 554.244 609.151 555.541 609.336 556.864C609.84 559.258 610.442 562.604 611.016 566.3C611.59 569.996 611.982 573.37 612.192 575.82C612.374 577.142 612.397 578.482 612.262 579.81C611.93 578.524 611.705 577.213 611.59 575.89C611.184 573.16 610.708 569.968 610.19 566.426C609.672 562.884 609.168 559.692 608.79 556.962C608.506 555.66 608.352 554.333 608.328 553Z" fill="#263238"/>
<g opacity="0.3">
<path d="M612.094 579.908C612.094 579.908 618.997 558.544 607.097 545.888C607.004 545.787 606.886 545.714 606.755 545.676C606.623 545.638 606.484 545.637 606.352 545.673C606.221 545.709 606.101 545.781 606.008 545.881C605.914 545.981 605.85 546.104 605.823 546.238C605.151 549.766 604.24 560.546 612.094 579.908Z" fill="black"/>
</g>
<path d="M649.74 504.616C649.74 504.616 668.122 491.736 666.274 474.46C666.26 474.324 666.208 474.195 666.125 474.086C666.042 473.978 665.931 473.895 665.804 473.845C665.676 473.796 665.538 473.783 665.403 473.808C665.269 473.832 665.144 473.893 665.042 473.984C662.368 476.392 655.2 484.4 649.74 504.616Z" fill="#FFDE4E"/>
<g opacity="0.3">
<path d="M649.74 504.616C649.74 504.616 668.122 491.736 666.274 474.46C666.26 474.324 666.208 474.195 666.125 474.086C666.042 473.978 665.931 473.895 665.804 473.845C665.676 473.796 665.538 473.783 665.403 473.808C665.269 473.832 665.144 473.893 665.042 473.984C662.368 476.392 655.2 484.4 649.74 504.616Z" fill="black"/>
</g>
<path d="M662.943 480.914C662.578 482.196 662.066 483.432 661.417 484.596C660.367 486.808 658.841 489.832 657.063 493.136C655.285 496.44 653.577 499.366 652.261 501.438C651.613 502.601 650.828 503.682 649.923 504.658C650.415 503.426 651.024 502.245 651.743 501.13C653.059 498.708 654.613 495.88 656.321 492.73L660.885 484.33C661.458 483.127 662.147 481.983 662.943 480.914Z" fill="#263238"/>
<path d="M619.515 558.726C619.515 558.726 641.691 555.268 647.627 538.944C647.675 538.817 647.687 538.679 647.662 538.545C647.637 538.411 647.575 538.287 647.484 538.185C647.393 538.084 647.276 538.01 647.145 537.971C647.015 537.932 646.876 537.93 646.745 537.964C643.287 539 633.263 542.99 619.515 558.726Z" fill="#FFDE4E"/>
<g opacity="0.3">
<path d="M619.515 558.726C619.515 558.726 641.691 555.268 647.627 538.944C647.675 538.817 647.687 538.679 647.662 538.545C647.637 538.411 647.575 538.287 647.484 538.185C647.393 538.084 647.276 538.01 647.145 537.971C647.015 537.932 646.876 537.93 646.745 537.964C643.287 539 633.263 542.99 619.515 558.726Z" fill="black"/>
</g>
<path d="M641.803 543.27C640.904 544.251 639.899 545.129 638.807 545.888C636.889 547.428 634.187 549.472 631.149 551.656C628.111 553.84 625.269 555.702 623.169 556.99C622.074 557.754 620.889 558.379 619.641 558.852C620.634 557.966 621.707 557.174 622.847 556.486L630.659 550.97L638.457 545.37C639.494 544.553 640.616 543.849 641.803 543.27Z" fill="#263238"/>
<path d="M598.346 599.55L591.878 643.09H632.198L626.976 599.55H598.346Z" fill="#455A64"/>
<path d="M628.6 613.032C628.6 613.27 621.32 613.452 612.346 613.452C603.372 613.452 596.078 613.27 596.078 613.032C601.49 612.617 606.92 612.477 612.346 612.612C617.768 612.477 623.193 612.617 628.6 613.032Z" fill="#263238"/>
<path d="M629.384 616.504C629.384 616.742 621.866 616.924 612.584 616.924C603.302 616.924 595.784 616.742 595.784 616.504C595.784 616.266 603.302 616.084 612.584 616.084C621.866 616.084 629.384 616.266 629.384 616.504Z" fill="#263238"/>
<path d="M472.598 177.156C472.598 177.156 472.22 177.156 471.492 177.156C470.429 177.093 469.363 177.093 468.3 177.156C464.188 177.397 460.148 178.344 456.358 179.956C450.35 182.474 445.121 186.548 441.21 191.758C438.798 195.011 437.005 198.679 435.918 202.58C433.468 211.872 434.791 221.756 439.6 230.076C440.91 232.379 442.51 234.506 444.36 236.404C446.226 238.415 448.4 240.116 450.8 241.444C453.263 242.83 456.052 243.531 458.878 243.474C461.791 243.439 464.585 242.31 466.704 240.31C467.728 239.237 468.531 237.972 469.067 236.589C469.603 235.205 469.86 233.729 469.826 232.246C469.804 229.164 468.826 226.165 467.026 223.664C463.4 218.554 457.52 215.124 451.262 213.276C444.773 211.453 437.92 211.357 431.382 212.996C428.045 213.864 424.828 215.143 421.806 216.804C418.755 218.526 415.984 220.702 413.588 223.258C413.014 223.916 412.356 224.518 411.838 225.246L410.256 227.374C409.294 228.874 408.433 230.436 407.68 232.05C406.182 235.328 405.159 238.802 404.642 242.368C403.626 249.492 404.595 256.759 407.442 263.368C410.163 269.826 414.903 275.229 420.952 278.768C423.885 280.444 427.158 281.434 430.528 281.666C433.832 281.851 437.118 281.062 439.978 279.398C442.817 277.829 445.06 275.369 446.362 272.398C447.59 269.47 447.675 266.188 446.6 263.2C445.493 260.317 443.684 257.757 441.336 255.752C439.058 253.784 436.432 252.26 433.594 251.258C428.058 249.513 422.135 249.41 416.542 250.964C411.309 252.382 406.502 255.059 402.542 258.762C398.935 262.218 396.187 266.471 394.52 271.18C391.604 279.351 391.738 288.3 394.898 296.38C397.362 302.412 401.329 307.713 406.42 311.78C409.627 314.352 413.199 316.433 417.018 317.954C418.334 318.444 419.356 318.808 420.056 319.004L421.092 319.34C421.092 319.34 420.728 319.27 420.028 319.074C418.994 318.797 417.975 318.465 416.976 318.08C413.106 316.626 409.488 314.576 406.252 312.004C401.075 307.94 397.03 302.613 394.506 296.534C391.29 288.378 391.126 279.335 394.044 271.068C395.714 266.287 398.492 261.97 402.15 258.468C406.166 254.691 411.044 251.952 416.36 250.488C422.07 248.895 428.12 248.992 433.776 250.768C436.698 251.787 439.401 253.35 441.742 255.374C444.182 257.445 446.06 260.098 447.202 263.088C448.353 266.209 448.303 269.647 447.062 272.734C445.681 275.822 443.338 278.381 440.384 280.028C437.418 281.757 434.012 282.584 430.584 282.408C427.132 282.167 423.78 281.143 420.784 279.412C414.597 275.823 409.739 270.327 406.938 263.746C404.029 257.016 403.031 249.614 404.054 242.354C404.588 238.716 405.635 235.171 407.162 231.826C407.931 230.177 408.81 228.582 409.794 227.052L411.418 224.882C411.936 224.14 412.608 223.482 413.196 222.838C415.648 220.234 418.48 218.015 421.596 216.258C424.688 214.566 427.981 213.267 431.396 212.394C438.059 210.724 445.042 210.826 451.654 212.688C458.038 214.592 464.016 218.078 467.782 223.37C469.675 225.976 470.703 229.109 470.722 232.33C470.79 235.5 469.596 238.566 467.404 240.856C465.164 242.959 462.216 244.143 459.144 244.174C456.204 244.241 453.302 243.51 450.744 242.06C448.286 240.704 446.064 238.96 444.164 236.894C442.29 234.954 440.667 232.785 439.334 230.44C434.439 221.965 433.11 211.894 435.638 202.44C436.758 198.494 438.595 194.788 441.056 191.506C445.039 186.257 450.357 182.171 456.456 179.676C460.278 178.095 464.349 177.204 468.482 177.044C469.554 176.973 470.63 176.973 471.702 177.044L472.598 177.156Z" fill="#263238"/>
<path d="M519.344 317.24H323.05V468.636H519.344V317.24Z" fill="#FFDE4E"/>
<path d="M323.05 317.24L359.31 351.064H552.272L519.344 317.24H323.05Z" fill="#FFDE4E"/>
<path d="M323.05 317.24L519.4 316.89H519.554L519.666 316.988L552.258 350.462L552.594 350.812L553.196 351.428H552.328L359.366 351.274H359.282L323.05 317.24L359.45 350.84H359.296L552.258 350.7L552.006 351.316L551.656 350.966L519.078 317.492L519.33 317.604L323.05 317.24Z" fill="#263238"/>
<path d="M382.017 387.058C380.954 387.097 379.948 387.551 379.217 388.324C378.485 389.096 378.086 390.125 378.105 391.189C378.124 392.253 378.561 393.267 379.32 394.012C380.079 394.758 381.1 395.175 382.165 395.175C383.229 395.175 384.25 394.758 385.009 394.012C385.768 393.267 386.205 392.253 386.224 391.189C386.243 390.125 385.844 389.096 385.112 388.324C384.381 387.551 383.375 387.097 382.311 387.058" fill="#263238"/>
<path d="M428.4 387.058C427.341 387.098 426.34 387.553 425.612 388.323C424.885 389.093 424.488 390.119 424.509 391.178C424.529 392.238 424.964 393.247 425.72 393.989C426.477 394.731 427.494 395.147 428.554 395.147C429.614 395.147 430.631 394.731 431.387 393.989C432.144 393.247 432.579 392.238 432.599 391.178C432.619 390.119 432.223 389.093 431.495 388.323C430.768 387.553 429.767 387.098 428.708 387.058" fill="#263238"/>
<path d="M428.666 423.29C427.856 420.197 426.541 417.26 424.774 414.596C422.808 411.747 420.283 409.328 417.354 407.484C413.819 405.139 409.697 403.833 405.457 403.717C401.217 403.601 397.029 404.678 393.372 406.826C390.351 408.513 387.699 410.788 385.574 413.518C383.659 416.083 382.188 418.951 381.22 422.002C381.231 421.774 381.268 421.549 381.332 421.33C381.466 420.699 381.639 420.077 381.85 419.468C382.617 417.219 383.737 415.107 385.168 413.21C387.278 410.352 389.963 407.968 393.05 406.21C396.802 403.97 401.113 402.844 405.481 402.963C409.849 403.082 414.093 404.441 417.718 406.882C420.698 408.798 423.245 411.316 425.194 414.274C426.524 416.249 427.53 418.423 428.176 420.714C428.348 421.336 428.484 421.967 428.582 422.604C428.63 422.83 428.658 423.059 428.666 423.29Z" fill="#263238"/>
<path opacity="0.5" d="M323.498 318.906L358.218 362.922H519.344V351.064H359.31L323.498 318.906Z" fill="black"/>
<path d="M480.634 468.3C480.438 468.3 480.27 441.966 480.27 409.5C480.27 377.034 480.438 350.7 480.634 350.7C480.83 350.7 481.012 377.02 481.012 409.5C481.012 441.98 480.844 468.3 480.634 468.3Z" fill="#263238"/>
<path d="M511.462 433.972H494.158V453.53H511.462V433.972Z" fill="#F5F5F5"/>
<path d="M323.05 317.24L282.758 351.064H323.05V317.24Z" fill="#FFDE4E"/>
<g opacity="0.4">
<path d="M323.05 317.24L282.758 351.064H323.05V317.24Z" fill="black"/>
</g>
<path d="M525.14 468.636H299.446V642.712H525.14V468.636Z" fill="#FFDE4E"/>
<path opacity="0.3" d="M525.14 468.636H299.446V642.712H525.14V468.636Z" fill="black"/>
<path d="M468.593 641.48C468.397 641.48 468.229 602.686 468.229 554.834C468.229 506.982 468.397 468.174 468.593 468.174C468.789 468.174 468.957 506.968 468.957 554.834C468.957 602.7 468.789 641.48 468.593 641.48Z" fill="#263238"/>
<path d="M506.002 603.092H488.698V622.65H506.002V603.092Z" fill="#F5F5F5"/>
<path d="M393.932 469.098H368.298V506.24H393.932V469.098Z" fill="#263238"/>
<path d="M393.932 605.052H368.298V642.194H393.932V605.052Z" fill="#263238"/>
<path d="M523.18 468.636H522.592H520.898L514.388 468.706L490.406 468.818L411.32 469L332.206 468.902L308.238 468.79L301.728 468.72L308.238 468.65L332.206 468.538L411.32 468.426L490.406 468.538L514.388 468.65L520.898 468.72H522.592L523.18 468.636Z" fill="#263238"/>
<path d="M197.802 272.75C202.518 278.521 205.072 285.757 205.022 293.21C204.972 297.43 204.192 302.08 206.652 305.51C208.512 308.11 211.912 309.42 213.422 312.24C215.242 315.63 213.692 319.92 214.812 323.6C216.392 328.82 222.512 331.01 226.142 335.08C227.69 336.88 228.772 339.031 229.295 341.346C229.818 343.662 229.766 346.07 229.142 348.36C228.481 350.64 227.285 352.73 225.654 354.456C224.022 356.181 222.002 357.492 219.762 358.28C217.37 359.223 214.702 359.179 212.342 358.16C209.892 356.94 208.342 354.43 207.142 351.98C204.732 347.16 183.562 321.11 182.362 315.85" fill="#263238"/>
<path d="M182.402 266.61C173.742 265.21 165.402 270.96 161.772 278.94C158.142 286.92 158.022 295.94 157.772 304.74C157.522 313.54 156.882 322.66 152.412 330.2C149.572 334.99 145.172 339.2 144.482 344.71C143.862 349.65 146.422 354.63 145.572 359.54C144.832 363.82 141.572 367.54 141.702 371.87C141.862 377.09 147.232 381.02 152.442 381.16C157.652 381.3 162.532 378.57 166.622 375.33C173.286 370.039 178.618 363.261 182.192 355.54" fill="#263238"/>
<path d="M168.152 287.25C167.88 285.071 168.048 282.86 168.647 280.748C169.246 278.636 170.263 276.666 171.637 274.955C173.012 273.243 174.717 271.825 176.65 270.785C178.583 269.745 180.706 269.104 182.892 268.9C191.622 268.06 199.392 274.57 200.702 283.25C201.852 290.86 202.832 298.54 202.802 301.33C202.692 309.74 197.802 313.01 195.802 314C195.082 314.258 194.338 314.442 193.582 314.55V314.61L195.442 324.27C196.292 330.6 192.762 336.27 186.442 337.16C180.122 338.05 175.152 333.22 174.182 326.89L168.152 287.25Z" fill="#FFBE9D"/>
<path d="M198.982 286.93C198.842 287.13 197.732 286.54 196.312 286.75C194.892 286.96 193.942 287.82 193.762 287.67C193.582 287.52 193.762 287.27 194.202 286.87C194.748 286.337 195.447 285.988 196.202 285.87C196.942 285.756 197.699 285.882 198.362 286.23C198.862 286.55 199.052 286.85 198.982 286.93Z" fill="#263238"/>
<path d="M186.321 290.01C186.181 290.21 185.071 289.61 183.641 289.82C182.211 290.03 181.281 290.9 181.101 290.75C180.921 290.6 181.101 290.34 181.541 289.95C182.088 289.417 182.787 289.068 183.541 288.95C184.282 288.844 185.038 288.974 185.701 289.32C186.191 289.63 186.391 289.92 186.321 290.01Z" fill="#263238"/>
<path d="M191.512 297.64C192.228 297.296 192.984 297.044 193.762 296.89C194.122 296.8 194.452 296.68 194.482 296.42C194.45 296.054 194.311 295.707 194.082 295.42L192.592 292.76C190.522 289.04 188.972 285.96 189.122 285.87C189.272 285.78 191.122 288.75 193.122 292.47C193.632 293.39 194.122 294.27 194.562 295.1C194.853 295.506 194.994 296.001 194.962 296.5C194.929 296.636 194.865 296.763 194.775 296.871C194.685 296.978 194.571 297.063 194.442 297.12C194.247 297.205 194.042 297.266 193.832 297.3C193.077 297.514 192.297 297.628 191.512 297.64Z" fill="#263238"/>
<path d="M193.502 314.56C193.502 314.56 188.072 315.81 180.592 312.68C180.592 312.68 183.822 319.63 194.012 317.16L193.502 314.56Z" fill="#EB996E"/>
<path d="M185.591 286.28C185.511 286.69 184.061 286.71 182.421 287.16C180.781 287.61 179.491 288.25 179.221 287.94C179.101 287.79 179.281 287.39 179.771 286.94C180.431 286.375 181.211 285.969 182.051 285.75C182.891 285.532 183.77 285.508 184.621 285.68C185.281 285.83 185.591 286.09 185.591 286.28Z" fill="#263238"/>
<path d="M197.811 283.78C197.611 284.14 196.581 283.95 195.401 284.1C194.221 284.25 193.251 284.64 192.971 284.33C192.851 284.18 192.971 283.84 193.351 283.47C193.876 283.005 194.534 282.718 195.231 282.65C195.92 282.567 196.618 282.696 197.231 283.02C197.711 283.29 197.901 283.6 197.811 283.78Z" fill="#263238"/>
<path d="M183.232 291.85C183.254 292.005 183.306 292.153 183.386 292.288C183.466 292.422 183.572 292.539 183.697 292.632C183.823 292.725 183.966 292.792 184.118 292.83C184.269 292.867 184.427 292.874 184.582 292.85C184.732 292.832 184.877 292.785 185.009 292.712C185.141 292.638 185.256 292.538 185.349 292.419C185.443 292.3 185.511 292.164 185.551 292.018C185.591 291.872 185.601 291.72 185.582 291.57C185.535 291.258 185.366 290.978 185.113 290.791C184.86 290.603 184.543 290.524 184.232 290.57C184.081 290.586 183.935 290.632 183.802 290.705C183.67 290.779 183.554 290.878 183.46 290.998C183.367 291.117 183.299 291.254 183.259 291.401C183.22 291.547 183.211 291.7 183.232 291.85Z" fill="#263238"/>
<path d="M195.842 289.12C195.889 289.431 196.057 289.711 196.31 289.899C196.563 290.086 196.88 290.166 197.192 290.12C197.342 290.102 197.487 290.055 197.619 289.982C197.751 289.908 197.867 289.808 197.96 289.689C198.053 289.57 198.121 289.433 198.161 289.288C198.201 289.142 198.211 288.99 198.192 288.84C198.145 288.528 197.977 288.248 197.724 288.061C197.47 287.873 197.153 287.794 196.842 287.84C196.691 287.856 196.545 287.902 196.413 287.975C196.28 288.049 196.164 288.148 196.071 288.268C195.977 288.387 195.909 288.524 195.87 288.67C195.83 288.817 195.821 288.97 195.842 289.12Z" fill="#263238"/>
<path d="M193.752 300.4C193.359 300.278 192.936 300.297 192.556 300.454C192.176 300.611 191.863 300.896 191.672 301.26C191.489 301.594 191.414 301.977 191.459 302.355C191.504 302.733 191.666 303.088 191.922 303.37C192.194 303.637 192.553 303.8 192.934 303.827C193.315 303.854 193.693 303.746 194.002 303.52C194.387 303.169 194.621 302.681 194.652 302.16C194.719 301.682 194.605 301.197 194.332 300.8C194.191 300.606 193.991 300.463 193.761 300.394C193.531 300.326 193.286 300.335 193.062 300.42" fill="#EB996E"/>
<path d="M199.592 276.4C198.807 273.231 196.848 270.479 194.112 268.7C191.872 267.082 189.211 266.148 186.452 266.01C183.675 265.89 180.964 266.875 178.912 268.75C177.455 270.193 176.623 272.15 176.592 274.2L176.752 272.8C176.331 273.939 176.331 275.191 176.752 276.33C176.982 276.94 177.262 277.56 177.502 278.17C178.218 279.932 179.546 281.378 181.242 282.24C182.01 282.652 182.87 282.862 183.742 282.85C184.178 282.841 184.607 282.737 184.999 282.545C185.391 282.354 185.737 282.079 186.012 281.74C186.633 280.656 186.825 279.379 186.552 278.16C187.208 279.364 188.144 280.393 189.282 281.16C189.862 281.531 190.553 281.691 191.238 281.612C191.923 281.534 192.56 281.222 193.042 280.73C193.862 279.73 193.542 278.15 193.042 276.91C193.815 278.079 194.899 279.011 196.172 279.6C196.507 279.792 196.878 279.912 197.261 279.954C197.645 279.995 198.034 279.956 198.402 279.84C198.696 279.694 198.953 279.483 199.154 279.223C199.355 278.963 199.494 278.661 199.562 278.34C199.71 277.703 199.72 277.041 199.592 276.4Z" fill="#263238"/>
<path d="M192.362 279.06C192.272 279.06 192.292 277.87 191.902 276.06C191.452 273.655 190.243 271.457 188.452 269.79C187.468 268.895 186.28 268.253 184.992 267.92C183.937 267.661 182.839 267.634 181.772 267.84C180.789 268.069 179.85 268.458 178.992 268.99C178.992 268.99 179.162 268.74 179.602 268.42C180.234 267.978 180.943 267.659 181.692 267.48C182.814 267.217 183.981 267.217 185.102 267.48C186.484 267.825 187.757 268.513 188.802 269.48C190.677 271.216 191.902 273.541 192.272 276.07C192.391 276.817 192.451 277.573 192.452 278.33C192.465 278.576 192.434 278.823 192.362 279.06Z" fill="#455A64"/>
<path d="M284.462 395.65L246.012 380.4C246.012 380.4 226.322 354.57 226.732 354.07L212.902 369.21L233.002 396.4L279.592 407.32L287.592 405.1C285.832 396.61 284.462 395.65 284.462 395.65Z" fill="#FFBE9D"/>
<path d="M200.662 321.96L195.422 319.96L172.802 322.83V326.83L172.152 326.91C167.276 327.946 162.599 329.763 158.302 332.29C154.277 334.747 151.079 338.352 149.118 342.641C147.158 346.931 146.526 351.708 147.302 356.36C148.222 362.08 150.002 369.03 153.442 373.05C160.012 380.74 166.012 371.24 166.012 371.24C166.012 371.24 170.132 380.64 169.892 385.09C169.692 388.82 168.052 396.58 167.522 399C167.5 399.096 167.499 399.197 167.517 399.294C167.535 399.391 167.573 399.484 167.628 399.567C167.683 399.649 167.755 399.719 167.838 399.773C167.921 399.827 168.014 399.863 168.112 399.88L215.832 408.71L216.062 397.04L214.542 349.04L212.392 330.4C212.392 330.4 212.462 321.5 200.662 321.96Z" fill="#FFDE4E"/>
<path d="M211.662 327.3L229.862 353.59L215.212 371.43L211.662 327.3Z" fill="#FFDE4E"/>
<path d="M215.592 382.62C215.527 382.056 215.503 381.487 215.522 380.92C215.522 379.74 215.522 378.19 215.462 376.3C215.374 371.227 215.01 366.163 214.372 361.13C213.622 355.23 212.472 349.96 211.602 346.13L210.542 341.63C210.388 341.085 210.275 340.531 210.202 339.97C210.43 340.489 210.61 341.028 210.742 341.58C211.052 342.58 211.472 344.15 211.952 346.05C213.243 350.984 214.225 355.993 214.892 361.05C215.535 366.104 215.849 371.195 215.832 376.29C215.832 378.29 215.782 379.83 215.722 380.92C215.727 381.489 215.684 382.058 215.592 382.62Z" fill="#263238"/>
<path d="M170.792 342.65C170.792 342.73 169.412 342.72 167.202 342.83C164.318 342.986 161.45 343.357 158.622 343.94C155.794 344.533 153.013 345.332 150.302 346.33C148.222 347.1 146.972 347.67 146.932 347.59C147.188 347.389 147.471 347.224 147.772 347.1C148.322 346.8 149.142 346.42 150.172 345.99C155.568 343.761 161.334 342.567 167.172 342.47C168.292 342.47 169.172 342.47 169.822 342.53C170.149 342.519 170.476 342.56 170.792 342.65Z" fill="#FAFAFA"/>
<path d="M212.942 354.68C212.211 354.945 211.448 355.114 210.672 355.18C206.974 355.72 203.228 355.847 199.502 355.56C198.724 355.546 197.951 355.432 197.202 355.22C197.974 355.151 198.75 355.151 199.522 355.22C200.942 355.22 202.912 355.22 205.082 355.22C207.252 355.22 209.212 355 210.632 354.87C211.395 354.737 212.168 354.673 212.942 354.68Z" fill="#FAFAFA"/>
<path d="M221.292 342.79C220.19 344.063 218.869 345.13 217.392 345.94C215.998 346.882 214.442 347.56 212.802 347.94C212.742 347.8 214.802 346.94 217.122 345.46C219.442 343.98 221.192 342.67 221.292 342.79Z" fill="#FAFAFA"/>
<path d="M213.942 330.6C210.787 333.438 206.767 335.129 202.532 335.4C202.532 335.24 205.282 334.82 208.442 333.47C211.602 332.12 213.842 330.47 213.942 330.6Z" fill="#FAFAFA"/>
<path d="M214.931 375.04C214.637 375.237 214.322 375.402 213.991 375.53C213.361 375.83 212.451 376.2 211.291 376.63C208.278 377.713 205.167 378.503 202.001 378.99C198.836 379.478 195.631 379.656 192.431 379.52C191.201 379.47 190.211 379.38 189.531 379.29C189.175 379.266 188.823 379.202 188.481 379.1C188.481 379.01 190.001 379.1 192.481 379.16C198.839 379.219 205.165 378.246 211.211 376.28C213.491 375.53 214.901 374.96 214.931 375.04Z" fill="#FAFAFA"/>
<path d="M215.302 388.59C215.302 388.59 215.162 388.69 214.872 388.84L213.592 389.4C212.492 389.92 210.862 390.6 208.822 391.4C206.782 392.2 204.312 392.97 201.532 393.73C195.488 395.357 189.285 396.32 183.032 396.6C180.152 396.71 177.562 396.7 175.382 396.6C173.202 396.5 171.452 396.34 170.242 396.17L168.852 395.98C168.688 395.968 168.527 395.934 168.372 395.88C168.534 395.854 168.7 395.854 168.862 395.88L170.262 395.97C171.472 396.07 173.262 396.17 175.392 396.23C177.522 396.29 180.152 396.23 183.012 396.13C185.872 396.03 189.012 395.67 192.282 395.13C195.552 394.59 198.632 393.94 201.412 393.24C204.192 392.54 206.652 391.75 208.692 391.02C210.732 390.29 212.392 389.68 213.512 389.22L214.812 388.71C214.971 388.653 215.135 388.612 215.302 388.59Z" fill="#FAFAFA"/>
<path d="M127.592 601.18L122.182 625.61L112.312 643.7C112.144 644.009 112.041 644.349 112.01 644.699C111.979 645.049 112.02 645.402 112.131 645.735C112.241 646.069 112.419 646.377 112.653 646.639C112.887 646.901 113.173 647.112 113.492 647.26C113.862 647.43 114.268 647.508 114.675 647.489C115.082 647.47 115.479 647.354 115.832 647.15C120.412 644.51 137.222 634.68 137.512 632.87C137.862 630.78 144.932 607.48 144.932 607.48L127.592 601.18Z" fill="#FFDE4E"/>
<g opacity="0.6">
<path d="M113.492 647.26L137.922 631.26L137.662 632.26C137.448 633.152 136.924 633.939 136.182 634.48C134.182 635.91 128.612 639.75 115.912 647.17C115.548 647.383 115.136 647.503 114.714 647.519C114.291 647.535 113.872 647.446 113.492 647.26Z" fill="white"/>
</g>
<g opacity="0.6">
<path d="M134.852 622.17C134.499 622.317 134.213 622.589 134.049 622.934C133.885 623.279 133.854 623.673 133.962 624.04C134.096 624.397 134.361 624.689 134.703 624.856C135.045 625.023 135.438 625.053 135.802 624.94C136.18 624.784 136.486 624.492 136.659 624.122C136.833 623.752 136.863 623.33 136.742 622.94C136.565 622.586 136.259 622.313 135.887 622.177C135.515 622.041 135.106 622.053 134.742 622.21" fill="white"/>
</g>
<path d="M121.652 638C121.248 637.1 120.682 636.283 119.982 635.59C119.175 635.028 118.269 634.624 117.312 634.4C117.312 634.33 117.662 634.22 118.252 634.28C119.019 634.379 119.742 634.698 120.332 635.2C120.926 635.682 121.364 636.329 121.592 637.06C121.762 637.63 121.712 638 121.652 638Z" fill="#263238"/>
<path d="M119.122 640.83C118.982 640.91 118.392 639.93 117.222 639.26C116.476 638.913 115.707 638.616 114.922 638.37C115.354 638.228 115.813 638.192 116.261 638.263C116.71 638.334 117.135 638.511 117.502 638.78C118.832 639.55 119.262 640.8 119.122 640.83Z" fill="#263238"/>
<path d="M125.891 634.62C125.041 633.676 124.118 632.8 123.131 632C122.044 631.337 120.908 630.758 119.731 630.27C121.084 630.242 122.402 630.696 123.451 631.55C124.608 632.246 125.475 633.336 125.891 634.62Z" fill="#263238"/>
<path d="M128.162 627.33C128.062 627.46 126.852 626.57 125.162 626.08C123.472 625.59 121.942 625.67 121.932 625.5C123.045 625.212 124.215 625.229 125.319 625.552C126.422 625.874 127.418 626.488 128.202 627.33H128.162Z" fill="#263238"/>
<path d="M129.932 620.2C128.956 619.597 127.903 619.129 126.802 618.81C125.667 618.655 124.517 618.655 123.382 618.81C123.382 618.75 123.692 618.51 124.332 618.32C125.173 618.091 126.056 618.063 126.91 618.236C127.765 618.41 128.567 618.781 129.252 619.32C129.762 619.8 129.972 620.16 129.932 620.2Z" fill="#263238"/>
<path d="M127.172 617.46C127.173 617.142 127.241 616.829 127.372 616.54C127.656 615.714 128.105 614.955 128.692 614.31C129.077 613.798 129.617 613.426 130.232 613.25C130.442 613.215 130.656 613.245 130.849 613.334C131.042 613.423 131.203 613.568 131.312 613.75C131.496 614.122 131.535 614.55 131.422 614.95C131.166 615.752 130.639 616.44 129.931 616.896C129.223 617.352 128.379 617.548 127.542 617.45C126.718 617.332 125.946 616.973 125.325 616.418C124.704 615.863 124.261 615.136 124.052 614.33C124.004 614.125 124 613.912 124.04 613.705C124.079 613.499 124.162 613.302 124.282 613.13C124.42 612.968 124.606 612.855 124.813 612.807C125.02 612.758 125.237 612.777 125.432 612.86C125.997 613.142 126.48 613.566 126.832 614.09C127.362 614.783 127.765 615.566 128.022 616.4C128.144 616.698 128.202 617.018 128.192 617.34C127.789 616.262 127.226 615.25 126.522 614.34C126.194 613.912 125.769 613.57 125.282 613.34C125.175 613.293 125.056 613.283 124.942 613.31C124.829 613.337 124.727 613.4 124.652 613.49C124.582 613.608 124.537 613.738 124.52 613.874C124.503 614.01 124.514 614.148 124.552 614.28C124.761 614.958 125.157 615.564 125.695 616.028C126.232 616.491 126.89 616.794 127.592 616.9C128.3 616.982 129.014 616.822 129.619 616.446C130.223 616.07 130.683 615.5 130.922 614.83C131.019 614.558 131.019 614.261 130.922 613.99C130.866 613.887 130.778 613.805 130.672 613.755C130.566 613.705 130.448 613.689 130.332 613.71C129.811 613.853 129.347 614.153 129.002 614.57C128.235 615.424 127.617 616.401 127.172 617.46Z" fill="#263238"/>
<g opacity="0.3">
<path d="M126.932 603.83L125.762 609.43L143.452 612.37L144.932 607.48L127.562 601.18L126.932 603.83Z" fill="black"/>
</g>
<path d="M206.592 610.22L205.132 629.74C205.132 629.74 224.492 637.74 224.572 641.42L186.572 639.95L187.572 609.43L206.592 610.22Z" fill="#FFDE4E"/>
<g opacity="0.6">
<path d="M193.482 627.64C193.113 627.739 192.794 627.969 192.584 628.288C192.373 628.607 192.288 628.992 192.342 629.37C192.426 629.742 192.649 630.067 192.965 630.281C193.281 630.495 193.666 630.58 194.042 630.52C194.434 630.416 194.774 630.17 194.996 629.83C195.217 629.49 195.305 629.081 195.242 628.68C195.116 628.3 194.848 627.984 194.493 627.797C194.139 627.611 193.727 627.569 193.342 627.68" fill="white"/>
</g>
<g opacity="0.6">
<path d="M186.592 639.95L186.812 636.87L223.162 639.4C223.162 639.4 224.832 640.2 224.592 641.4L186.592 639.95Z" fill="white"/>
</g>
<path d="M205.772 629.57C205.772 629.76 204.832 629.81 203.902 630.37C202.972 630.93 202.452 631.69 202.282 631.61C202.112 631.53 202.432 630.47 203.572 629.81C204.712 629.15 205.822 629.4 205.772 629.57Z" fill="#263238"/>
<path d="M209.692 631.4C209.692 631.59 208.912 631.87 208.252 632.63C207.592 633.39 207.382 634.21 207.192 634.2C207.002 634.19 206.932 633.13 207.772 632.2C208.612 631.27 209.692 631.2 209.692 631.4Z" fill="#263238"/>
<path d="M211.772 636.23C211.602 636.23 211.382 635.32 211.892 634.33C212.402 633.34 213.292 632.96 213.362 633.12C213.432 633.28 212.882 633.8 212.472 634.62C212.062 635.44 211.952 636.22 211.772 636.23Z" fill="#263238"/>
<path d="M205.591 625.09C205.511 625.25 204.671 624.96 203.591 624.99C202.511 625.02 201.711 625.32 201.591 625.16C201.471 625 202.311 624.37 203.591 624.35C204.871 624.33 205.711 624.95 205.591 625.09Z" fill="#263238"/>
<g opacity="0.3">
<path d="M206.322 614.09L206.062 617.57L187.412 616.67L187.542 612.65L206.322 614.09Z" fill="black"/>
</g>
<path d="M205.842 621.14C205.213 621.292 204.555 621.264 203.942 621.06C203.248 620.916 202.576 620.684 201.942 620.37C201.571 620.187 201.214 619.98 200.872 619.75C200.663 619.621 200.474 619.463 200.312 619.28C200.201 619.136 200.142 618.961 200.142 618.78C200.142 618.599 200.201 618.423 200.312 618.28C200.409 618.153 200.535 618.052 200.679 617.984C200.824 617.916 200.982 617.884 201.142 617.89C201.382 617.899 201.621 617.94 201.852 618.01C202.252 618.127 202.64 618.281 203.012 618.47C203.643 618.778 204.221 619.187 204.722 619.68C205.572 620.53 205.842 621.24 205.782 621.27C205.722 621.3 205.292 620.73 204.422 620.02C203.911 619.62 203.353 619.285 202.762 619.02C202.409 618.874 202.048 618.747 201.682 618.64C201.282 618.52 200.942 618.51 200.832 618.64C200.722 618.77 200.832 618.74 200.832 618.86C200.952 618.992 201.09 619.106 201.242 619.2C201.562 619.423 201.896 619.627 202.242 619.81C202.818 620.128 203.425 620.389 204.052 620.59C204.661 620.73 205.259 620.914 205.842 621.14Z" fill="#263238"/>
<path d="M205.592 621.4C205.259 620.839 205.109 620.189 205.162 619.54C205.166 618.836 205.28 618.138 205.502 617.47C205.645 617.078 205.822 616.7 206.032 616.34C206.144 616.092 206.318 615.878 206.537 615.717C206.756 615.556 207.012 615.454 207.282 615.42C207.452 615.431 207.616 615.49 207.755 615.591C207.893 615.692 207.999 615.83 208.062 615.99C208.148 616.214 208.202 616.45 208.222 616.69C208.287 617.114 208.287 617.546 208.222 617.97C208.088 618.676 207.782 619.339 207.332 619.9C206.552 620.9 205.772 621.05 205.752 620.99C205.732 620.93 206.352 620.56 206.962 619.63C207.312 619.1 207.54 618.499 207.632 617.87C207.682 617.505 207.682 617.135 207.632 616.77C207.582 616.37 207.442 616.03 207.292 616.07C207.142 616.11 206.772 616.35 206.602 616.67C206.406 616.99 206.236 617.324 206.092 617.67C205.86 618.273 205.712 618.906 205.652 619.55C205.522 620.67 205.692 621.4 205.592 621.4Z" fill="#263238"/>
<path d="M167.312 399.7C167.312 399.7 161.312 399.97 157.312 420.49C153.312 441.01 122.822 607.28 122.822 607.28L144.932 607.48L186.592 449.4L183.822 612.4L206.282 614.12C206.282 614.12 223.132 433.83 223.282 423.34C223.482 410.26 215.972 397.03 215.972 397.03L167.312 399.7Z" fill="#263238"/>
<path d="M197.702 397.95C197.842 397.95 195.542 409.7 192.572 424.13C189.602 438.56 187.082 450.24 186.942 450.21C186.802 450.18 189.092 438.46 192.062 424.03C195.032 409.6 197.592 397.92 197.702 397.95Z" fill="#455A64"/>
<path d="M201.142 400.88C201.142 400.82 201.742 400.64 202.432 401.25C202.627 401.427 202.783 401.645 202.886 401.889C202.99 402.132 203.039 402.395 203.032 402.66C203.006 402.994 202.887 403.314 202.687 403.584C202.487 403.853 202.214 404.059 201.902 404.18C201.596 404.318 201.258 404.368 200.926 404.324C200.593 404.28 200.28 404.143 200.021 403.93C199.828 403.748 199.676 403.528 199.574 403.283C199.472 403.038 199.424 402.775 199.432 402.51C199.432 401.59 200.052 401.27 200.062 401.33C199.893 401.697 199.804 402.096 199.802 402.5C199.815 402.703 199.869 402.901 199.96 403.083C200.051 403.265 200.177 403.427 200.332 403.56C200.529 403.696 200.757 403.78 200.995 403.805C201.234 403.829 201.475 403.794 201.696 403.701C201.917 403.609 202.111 403.462 202.26 403.275C202.41 403.088 202.51 402.866 202.552 402.63C202.566 402.427 202.54 402.224 202.475 402.031C202.41 401.839 202.306 401.662 202.172 401.51C201.682 400.94 201.132 400.96 201.142 400.88Z" fill="#455A64"/>
<path d="M200.192 409C200.192 408.94 200.812 409 201.192 409.83C201.289 410.067 201.332 410.322 201.32 410.577C201.308 410.833 201.241 411.083 201.122 411.31C200.95 411.579 200.708 411.797 200.422 411.939C200.135 412.082 199.815 412.143 199.497 412.117C199.178 412.092 198.872 411.98 198.613 411.793C198.353 411.607 198.149 411.353 198.022 411.06C197.942 410.819 197.916 410.563 197.945 410.311C197.975 410.059 198.059 409.816 198.192 409.6C198.662 408.85 199.302 408.87 199.282 408.93C199.262 408.99 198.802 409.13 198.512 409.77C198.365 410.129 198.365 410.531 198.512 410.89C198.616 411.088 198.769 411.257 198.956 411.381C199.144 411.504 199.359 411.578 199.582 411.596C199.806 411.614 200.03 411.575 200.235 411.483C200.439 411.391 200.617 411.249 200.752 411.07C200.94 410.728 200.987 410.326 200.882 409.95C200.592 409.27 200.142 409.07 200.192 409Z" fill="#455A64"/>
<path d="M179.002 401.08C178.961 401.423 178.873 401.76 178.742 402.08C178.429 402.995 178.038 403.882 177.572 404.73C176.046 407.559 173.842 409.965 171.158 411.733C168.474 413.501 165.393 414.575 162.192 414.86C161.23 414.944 160.263 414.944 159.302 414.86C158.963 414.849 158.627 414.795 158.302 414.7C158.302 414.6 159.812 414.77 162.202 414.47C165.317 414.092 168.301 412.996 170.922 411.27C173.542 409.544 175.726 407.233 177.302 404.52C178.472 402.5 178.912 401.05 179.002 401.08Z" fill="#455A64"/>
<path d="M222.022 415.67C222.022 415.67 221.762 415.55 221.352 415.27C220.779 414.858 220.244 414.396 219.752 413.89C218.107 412.225 216.824 410.239 215.983 408.055C215.141 405.871 214.76 403.538 214.862 401.2C214.885 400.496 214.975 399.796 215.132 399.11C215.242 398.62 215.312 398.36 215.352 398.37C215.392 398.38 215.232 399.46 215.232 401.21C215.234 405.803 216.94 410.233 220.022 413.64C221.192 414.93 222.072 415.59 222.022 415.67Z" fill="#455A64"/>
<path d="M299.592 416.25C299.922 415.45 299.832 415.77 294.532 412.25C294.532 412.25 302.132 417.25 301.342 414.87C300.658 413.968 299.822 413.193 298.872 412.58C300.872 413.76 302.032 413.89 302.382 413.41C302.982 412.58 298.632 409.41 296.562 407.98C298.454 409.334 300.439 410.553 302.502 411.63C303.732 412.01 303.142 410.57 302.312 409.52C301.482 408.47 295.042 402.27 293.312 400.42C293.147 400.279 293.015 400.104 292.924 399.907C292.834 399.711 292.787 399.496 292.787 399.28C292.787 399.063 292.834 398.849 292.924 398.652C293.015 398.455 293.147 398.281 293.312 398.14C296.412 396.14 297.772 392.95 297.732 391.9C297.697 391.663 297.589 391.444 297.422 391.273C297.255 391.102 297.038 390.989 296.803 390.949C296.567 390.909 296.325 390.944 296.111 391.05C295.897 391.157 295.722 391.328 295.612 391.54C294.829 392.512 293.917 393.374 292.902 394.1C292.114 394.714 291.228 395.191 290.282 395.51C289.182 395.87 283.772 395.57 282.612 394.98L278.922 407.49C278.922 407.49 292.312 413.75 294.852 414.97C297.972 416.45 299.362 416.86 299.592 416.25Z" fill="#FFBE9D"/>
<path d="M292.122 410.4C292.012 410.55 293.752 411.82 296.002 413.25C298.252 414.68 300.142 415.71 300.232 415.56C300.322 415.41 298.582 414.13 296.342 412.71C294.102 411.29 292.222 410.21 292.122 410.4Z" fill="#EB996E"/>
<path d="M293.382 407.95C293.282 408.1 295.062 409.56 297.382 411.22C299.702 412.88 301.622 414.11 301.722 413.97C301.822 413.83 300.052 412.36 297.722 410.7C295.392 409.04 293.492 407.81 293.382 407.95Z" fill="#EB996E"/>
<path d="M294.712 405.47C294.612 405.61 296.272 407.03 298.422 408.63C300.572 410.23 302.422 411.41 302.502 411.27C302.582 411.13 300.952 409.71 298.802 408.11C296.652 406.51 294.822 405.33 294.712 405.47Z" fill="#EB996E"/>
<path d="M158.522 360.16L168.342 360.7C169.038 363.441 169.968 366.118 171.122 368.7C179.032 354.98 185.122 336.59 186.682 329.2C186.462 328.473 186.192 327.653 185.872 326.74C185.632 325.359 185.673 323.944 185.992 322.58C186.262 320.94 186.722 318.72 186.852 317.7C187.282 314.58 187.782 314.08 188.852 314.44C190.332 314.92 188.242 323.21 189.452 323.39C190.112 323.48 190.902 320.64 191.142 318.31C191.382 315.98 192.422 308.82 193.192 308.31C194.322 307.61 195.302 308.72 195.022 311.04C194.742 313.36 194.372 320.39 195.602 320.48C196.832 320.57 197.832 308.69 197.832 308.69C197.832 308.69 197.642 306.11 199.062 306.17C201.632 306.28 199.632 318.81 199.412 320C199.252 320.82 200.592 321 200.712 320.08C200.832 319.16 201.452 308.19 204.062 308.28C206.062 308.35 202.512 318.6 203.642 320.98C204.772 323.36 205.552 312.91 207.472 313.05C208.182 313.11 208.712 313.25 207.402 319.16C206.124 323.859 204.591 328.486 202.812 333.02C199.812 349.42 186.422 401.88 165.502 392.28C153.802 386.91 148.332 360.28 148.332 360.28L158.522 360.16Z" fill="#FFBE9D"/>
<path d="M202.832 333.11C202.849 332.986 202.883 332.865 202.932 332.75C203.022 332.49 203.132 332.15 203.282 331.75C203.612 330.8 204.062 329.48 204.652 327.75C205.242 326.02 205.952 323.92 206.652 321.44C207.012 320.21 207.312 318.87 207.582 317.44C207.722 316.72 207.852 315.98 207.942 315.22C207.967 314.843 207.967 314.466 207.942 314.09C207.942 313.7 207.852 313.38 207.542 313.37C207.232 313.36 207.012 313.55 206.792 313.88C206.593 314.233 206.429 314.605 206.302 314.99C206.022 315.78 205.802 316.62 205.582 317.47C205.362 318.32 205.162 319.21 204.902 320.11C204.789 320.603 204.585 321.071 204.302 321.49C204.231 321.572 204.137 321.631 204.032 321.66C203.966 321.674 203.897 321.674 203.832 321.658C203.766 321.643 203.704 321.612 203.652 321.57C203.537 321.464 203.442 321.339 203.372 321.2C203.266 320.954 203.196 320.695 203.162 320.43C203.116 318.413 203.318 316.398 203.762 314.43C203.932 313.43 204.112 312.43 204.242 311.43C204.302 310.92 204.362 310.43 204.372 309.89C204.382 309.35 204.302 308.78 204.092 308.69C203.882 308.6 203.372 308.88 203.092 309.3C202.816 309.743 202.597 310.221 202.442 310.72C202.101 311.764 201.843 312.834 201.672 313.92C201.482 315.02 201.332 316.14 201.202 317.28C201.152 317.85 201.092 318.42 201.042 319L200.962 319.87C200.973 320.056 200.942 320.241 200.873 320.414C200.804 320.587 200.698 320.743 200.562 320.87C200.391 320.995 200.184 321.062 199.972 321.062C199.76 321.062 199.553 320.995 199.382 320.87C199.285 320.806 199.203 320.722 199.141 320.623C199.079 320.525 199.038 320.415 199.022 320.3C199.007 320.194 199.007 320.086 199.022 319.98V319.77L199.292 318.02C199.462 316.84 199.602 315.66 199.712 314.46C199.822 313.26 199.912 312.05 199.932 310.84C199.991 309.642 199.869 308.442 199.572 307.28C199.503 306.985 199.324 306.727 199.072 306.56C198.951 306.521 198.822 306.521 198.701 306.561C198.581 306.6 198.476 306.677 198.402 306.78C198.078 307.372 197.945 308.049 198.022 308.72C197.802 311.07 197.552 313.38 197.212 315.65C197.042 316.78 196.852 317.91 196.572 319.02C196.492 319.29 196.412 319.57 196.312 319.85C196.217 320.189 196.017 320.49 195.742 320.71C195.62 320.77 195.482 320.786 195.349 320.757C195.216 320.728 195.098 320.655 195.012 320.55C194.89 320.421 194.798 320.268 194.742 320.1C194.634 319.822 194.557 319.534 194.512 319.24C194.278 317.064 194.257 314.87 194.452 312.69C194.6 311.673 194.657 310.646 194.622 309.62C194.59 309.182 194.389 308.773 194.062 308.48C193.985 308.432 193.899 308.4 193.81 308.387C193.721 308.373 193.63 308.377 193.542 308.4C193.448 308.431 193.358 308.471 193.272 308.52C193.182 308.6 193.192 308.52 193.132 308.69C192.77 309.589 192.505 310.524 192.342 311.48C192.142 312.48 191.972 313.39 191.822 314.33C191.672 315.27 191.532 316.19 191.412 317.11C191.292 318.03 191.232 318.93 191.052 319.83C190.897 320.709 190.662 321.572 190.352 322.41C190.27 322.623 190.173 322.83 190.062 323.03C189.922 323.22 189.842 323.46 189.462 323.58C189.365 323.598 189.264 323.586 189.174 323.547C189.083 323.508 189.006 323.443 188.952 323.36C188.882 323.244 188.828 323.12 188.792 322.99C188.747 322.772 188.72 322.552 188.712 322.33C188.712 320.62 188.942 319.06 189.032 317.55C189.097 316.828 189.097 316.102 189.032 315.38C189.032 315.06 188.882 314.68 188.702 314.61C188.576 314.548 188.437 314.516 188.297 314.516C188.157 314.516 188.018 314.548 187.892 314.61C187.472 315.061 187.212 315.637 187.152 316.25C187.002 316.86 186.942 317.48 186.832 318.07C186.412 320.43 185.972 322.47 185.762 324.13C185.663 324.86 185.663 325.6 185.762 326.33C185.902 326.93 186.112 327.47 186.222 327.89C186.332 328.31 186.442 328.61 186.512 328.89C186.549 328.997 186.576 329.107 186.592 329.22C186.532 329.123 186.485 329.019 186.452 328.91L186.112 327.91C185.972 327.48 185.762 327 185.592 326.34C185.485 325.59 185.485 324.829 185.592 324.08C185.782 322.39 186.182 320.37 186.592 318C186.702 317.41 186.762 316.79 186.892 316.15C186.964 315.812 187.054 315.478 187.162 315.15C187.262 314.786 187.48 314.466 187.782 314.24C187.964 314.143 188.166 314.093 188.372 314.093C188.578 314.093 188.78 314.143 188.962 314.24C189.157 314.363 189.318 314.534 189.428 314.737C189.539 314.941 189.595 315.169 189.592 315.4C189.662 316.151 189.662 316.908 189.592 317.66C189.522 319.18 189.282 320.77 189.322 322.39C189.329 322.581 189.353 322.772 189.392 322.96C189.392 323.15 189.532 323.23 189.512 323.19C189.492 323.15 189.702 323.03 189.782 322.87C189.881 322.692 189.967 322.509 190.042 322.32C190.338 321.509 190.556 320.672 190.692 319.82C190.862 318.95 190.922 318.05 191.042 317.12C191.162 316.19 191.282 315.27 191.432 314.32C191.582 313.37 191.752 312.42 191.942 311.45C192.105 310.437 192.386 309.446 192.782 308.5C192.862 308.341 192.983 308.206 193.132 308.11C193.265 308.037 193.406 307.98 193.552 307.94C193.72 307.892 193.896 307.88 194.068 307.906C194.241 307.932 194.406 307.995 194.552 308.09C194.784 308.274 194.976 308.504 195.115 308.765C195.254 309.027 195.338 309.314 195.362 309.61C195.437 310.154 195.437 310.706 195.362 311.25C195.312 311.76 195.262 312.25 195.232 312.81C195.037 314.94 195.057 317.084 195.292 319.21C195.335 319.462 195.402 319.71 195.492 319.95C195.522 320.046 195.573 320.135 195.642 320.21C195.642 320.21 195.642 320.21 195.692 320.21C195.692 320.44 195.692 320.21 195.692 320.3C195.692 320.39 195.692 320.3 195.692 320.22C195.817 320.053 195.915 319.867 195.982 319.67C196.075 319.423 196.155 319.163 196.222 318.89C196.492 317.83 196.672 316.71 196.842 315.59C197.182 313.34 197.432 311.03 197.642 308.69V308.74C197.553 307.915 197.732 307.084 198.152 306.37C198.312 306.165 198.532 306.016 198.781 305.943C199.031 305.869 199.296 305.875 199.542 305.96C199.752 306.076 199.936 306.233 200.084 306.422C200.231 306.611 200.34 306.828 200.402 307.06C200.722 308.289 200.854 309.561 200.792 310.83C200.792 312.07 200.682 313.29 200.572 314.5C200.462 315.71 200.312 316.9 200.142 318.08C200.052 318.68 199.962 319.26 199.872 319.85C199.792 320.22 199.812 320.23 199.872 320.34C199.941 320.387 200.023 320.412 200.107 320.412C200.191 320.412 200.273 320.387 200.342 320.34C200.462 320.25 200.482 320.08 200.512 319.75L200.582 318.88L200.762 317.15C200.882 316.01 201.042 314.87 201.232 313.76C201.417 312.645 201.684 311.545 202.032 310.47C202.213 309.926 202.459 309.406 202.762 308.92C202.927 308.658 203.145 308.433 203.402 308.26C203.544 308.157 203.71 308.089 203.884 308.063C204.058 308.037 204.235 308.053 204.402 308.11C204.555 308.204 204.684 308.333 204.78 308.485C204.875 308.638 204.934 308.811 204.952 308.99C204.993 309.271 205.01 309.555 205.002 309.84C205.002 310.39 204.932 310.92 204.872 311.45C204.732 312.45 204.542 313.51 204.362 314.52C203.932 316.419 203.724 318.362 203.742 320.31C203.77 320.519 203.824 320.724 203.902 320.92C203.938 320.991 203.982 321.058 204.032 321.12C204.032 321.12 204.032 321.12 204.032 321.05C204.256 320.688 204.422 320.293 204.522 319.88C204.782 319.01 204.992 318.13 205.222 317.27C205.428 316.414 205.679 315.57 205.972 314.74C206.11 314.329 206.291 313.933 206.512 313.56C206.631 313.356 206.787 313.176 206.972 313.03C207.072 312.943 207.193 312.881 207.322 312.85C207.451 312.829 207.583 312.829 207.712 312.85C207.848 312.863 207.979 312.913 208.089 312.994C208.2 313.075 208.287 313.184 208.342 313.31C208.425 313.52 208.47 313.744 208.472 313.97C208.48 314.374 208.456 314.779 208.402 315.18C208.312 315.96 208.162 316.7 208.022 317.43C207.732 318.86 207.412 320.22 207.022 321.43C206.272 323.91 205.522 326.01 204.912 327.72C204.302 329.43 203.782 330.72 203.432 331.64C203.262 332.06 203.122 332.39 203.022 332.64C202.977 332.803 202.913 332.961 202.832 333.11Z" fill="#EB996E"/>
<path d="M148.242 361.29C150.142 368 153.862 378.35 157.852 389.29C157.978 389.642 158.206 389.949 158.506 390.172C158.807 390.395 159.167 390.524 159.54 390.542C159.914 390.561 160.285 390.467 160.606 390.275C160.926 390.082 161.183 389.798 161.342 389.46L171.122 368.77C171.122 368.77 168.762 351.77 168.962 352.38C169.162 352.99 148.782 354.58 148.782 354.58L148.242 361.29Z" fill="#FFDE4E"/>
<path d="M170.282 357.96C170.282 358.04 169.062 358.4 167.132 359.14C164.609 360.097 162.179 361.282 159.872 362.68C157.567 364.084 155.392 365.69 153.372 367.48C151.822 368.85 150.932 369.79 150.872 369.73C150.812 369.67 151.042 369.45 151.422 369C151.957 368.374 152.525 367.777 153.122 367.21C155.093 365.312 157.266 363.635 159.602 362.21C161.938 360.802 164.419 359.649 167.002 358.77C167.782 358.501 168.577 358.274 169.382 358.09C169.673 357.999 169.977 357.955 170.282 357.96Z" fill="#FAFAFA"/>
<path d="M174.162 363.12C173.527 362.479 172.976 361.76 172.522 360.98C171.354 359.159 170.35 357.238 169.522 355.24C168.693 353.235 168.047 351.16 167.592 349.04C167.359 348.172 167.241 347.278 167.242 346.38C167.54 347.218 167.778 348.077 167.952 348.95C168.488 351.02 169.156 353.055 169.952 355.04C170.784 357.014 171.739 358.935 172.812 360.79C173.312 361.537 173.762 362.315 174.162 363.12Z" fill="#263238"/>
<path d="M180.682 271.5C178.986 274.296 177.934 277.435 177.603 280.689C177.273 283.943 177.672 287.23 178.772 290.31C179.772 293.06 181.372 295.77 181.082 298.69C180.792 301.61 178.512 304.5 179.312 307.38C179.792 309.09 181.252 310.38 181.822 312.04C182.472 314.04 181.822 316.15 181.472 318.2C180.672 323.44 182.352 328.71 182.762 333.99C183.172 339.27 181.762 345.46 177.042 347.76C175.612 348.46 173.742 348.66 172.552 347.59C171.032 346.24 171.452 343.8 171.872 341.8C176.012 321.8 163.222 302.28 166.142 282.04C166.612 278.8 168.422 273.3 170.752 271.04C173.082 268.78 179.552 269.04 181.752 271.44" fill="#263238"/>
<path d="M160.981 329.52C160.981 329.52 161.591 328.8 162.491 327.38C163.754 325.374 164.639 323.154 165.101 320.83C165.403 319.229 165.507 317.596 165.411 315.97C165.237 314.078 165.166 312.179 165.201 310.28C165.261 309.24 165.453 308.212 165.771 307.22C166.137 306.198 166.599 305.214 167.151 304.28C168.271 302.39 169.681 300.63 170.981 298.75C172.316 296.973 173.245 294.925 173.701 292.75C173.923 290.701 173.805 288.63 173.351 286.62C172.973 284.752 172.825 282.844 172.911 280.94C173.03 279.276 173.367 277.636 173.911 276.06C174.675 273.773 175.878 271.657 177.451 269.83C177.869 269.333 178.324 268.868 178.811 268.44C178.966 268.275 179.141 268.131 179.331 268.01C179.331 268.01 178.661 268.66 177.601 270.01C175.077 273.144 173.601 276.991 173.381 281.01C173.315 282.883 173.479 284.757 173.871 286.59C174.348 288.654 174.477 290.783 174.251 292.89C173.777 295.125 172.822 297.231 171.451 299.06C170.141 300.97 168.731 302.72 167.631 304.56C167.09 305.459 166.641 306.41 166.291 307.4C165.975 308.351 165.783 309.339 165.721 310.34C165.677 312.218 165.731 314.097 165.881 315.97C165.961 317.629 165.833 319.292 165.501 320.92C165 323.276 164.05 325.513 162.701 327.51C162.336 328.049 161.936 328.564 161.501 329.05C161.346 329.225 161.171 329.383 160.981 329.52Z" fill="#455A64"/>
<path d="M151.502 331.01C151.583 330.777 151.686 330.552 151.812 330.34C152.062 329.87 152.382 329.25 152.812 328.47C153.652 326.84 154.902 324.47 156.132 321.47C157.637 317.966 158.471 314.211 158.592 310.4C158.593 309.302 158.509 308.205 158.342 307.12C158.172 306 157.912 304.87 157.742 303.69C157.534 302.469 157.561 301.22 157.822 300.01C158.16 298.767 158.856 297.651 159.822 296.8C161.702 295.09 163.972 293.97 165.152 291.96C166.174 289.967 166.777 287.785 166.922 285.55C167.134 283.501 167.597 281.485 168.302 279.55C169.887 275.394 172.711 271.826 176.392 269.33C176.979 268.935 177.59 268.577 178.222 268.26C178.435 268.132 178.664 268.031 178.902 267.96C178.902 267.96 178.002 268.44 176.512 269.5C174.412 270.998 172.594 272.857 171.142 274.99C170.135 276.452 169.315 278.034 168.702 279.7C168.028 281.64 167.592 283.655 167.402 285.7C167.102 287.83 166.862 290.21 165.582 292.32C164.302 294.43 161.962 295.63 160.172 297.32C159.26 298.111 158.602 299.155 158.282 300.32C158.039 301.465 158.015 302.646 158.212 303.8C158.372 304.95 158.622 306.09 158.792 307.22C158.965 308.331 159.045 309.455 159.032 310.58C158.896 314.461 158.017 318.28 156.442 321.83C155.419 324.229 154.257 326.566 152.962 328.83L151.902 330.4C151.791 330.617 151.656 330.821 151.502 331.01Z" fill="#455A64"/>
</svg>
