<svg width="51" height="48" viewBox="0 0 51 48" fill="none" xmlns="http://www.w3.org/2000/svg">
<path fill-rule="evenodd" clip-rule="evenodd" d="M25.0104 42C35.3702 42 43.7684 33.9411 43.7684 24C43.7684 14.0589 35.3702 6 25.0104 6C14.6507 6 6.25244 14.0589 6.25244 24C6.25244 33.9411 14.6507 42 25.0104 42Z" fill="#8CB4FF"/>
<path fill-rule="evenodd" clip-rule="evenodd" d="M22.6139 19.0988V21.3019H21V23.9956H22.6139V32H25.9291V23.9956H28.1538C28.1538 23.9956 28.3621 22.7038 28.4629 21.2916H25.9417V19.45C25.9417 19.1748 26.3031 18.8044 26.6604 18.8044H28.4667V16H26.0107C22.5319 16 22.6139 18.6962 22.6139 19.0988Z" fill="white"/>
</svg>
