<svg width="51" height="48" viewBox="0 0 51 48" fill="none" xmlns="http://www.w3.org/2000/svg">
<path fill-rule="evenodd" clip-rule="evenodd" d="M25.989 42C36.3487 42 44.747 33.9411 44.747 24C44.747 14.0589 36.3487 6 25.989 6C15.6292 6 7.23096 14.0589 7.23096 24C7.23096 33.9411 15.6292 42 25.989 42Z" fill="#8CB4FF"/>
<path fill-rule="evenodd" clip-rule="evenodd" d="M30.2489 18.7696C29.7188 18.7696 29.2889 19.1994 29.2889 19.7296C29.2889 20.2598 29.7188 20.6896 30.2489 20.6896C30.7791 20.6896 31.2089 20.2598 31.2089 19.7296C31.2089 19.1994 30.7791 18.7696 30.2489 18.7696ZM25.9785 26.6667C24.5057 26.6667 23.3118 25.4727 23.3118 24C23.3118 22.5273 24.5057 21.3333 25.9785 21.3333C27.4513 21.3333 28.6452 22.5273 28.6452 24C28.6452 25.4727 27.4513 26.6667 25.9785 26.6667ZM25.9785 19.8919C23.7097 19.8919 21.8704 21.7312 21.8704 24C21.8704 26.2688 23.7097 28.1081 25.9785 28.1081C28.2474 28.1081 30.0866 26.2688 30.0866 24C30.0866 21.7312 28.2474 19.8919 25.9785 19.8919ZM25.9785 16C23.8058 16 23.5334 16.0092 22.6801 16.0481C21.8286 16.087 21.2471 16.2222 20.7382 16.42C20.2121 16.6244 19.766 16.898 19.3212 17.3427C18.8765 17.7875 18.603 18.2336 18.3985 18.7597C18.2007 19.2686 18.0655 19.8501 18.0266 20.7016C17.9877 21.5549 17.9785 21.8273 17.9785 24C17.9785 26.1727 17.9877 26.4451 18.0266 27.2984C18.0655 28.1499 18.2007 28.7314 18.3985 29.2403C18.603 29.7663 18.8765 30.2125 19.3212 30.6573C19.766 31.102 20.2121 31.3756 20.7382 31.58C21.2471 31.7778 21.8286 31.913 22.6801 31.9519C23.5334 31.9908 23.8058 32 25.9785 32C28.1512 32 28.4236 31.9908 29.2769 31.9519C30.1284 31.913 30.71 31.7778 31.2188 31.58C31.7449 31.3756 32.191 31.102 32.6358 30.6573C33.0805 30.2125 33.3541 29.7664 33.5585 29.2403C33.7563 28.7314 33.8915 28.1499 33.9304 27.2984C33.9693 26.4451 33.9785 26.1727 33.9785 24C33.9785 21.8273 33.9693 21.5549 33.9304 20.7016C33.8915 19.8501 33.7563 19.2686 33.5585 18.7597C33.3541 18.2336 33.0805 17.7875 32.6358 17.3427C32.191 16.898 31.7449 16.6244 31.2188 16.42C30.71 16.2222 30.1284 16.087 29.2769 16.0481C28.4236 16.0092 28.1512 16 25.9785 16ZM25.9785 17.4415C28.1146 17.4415 28.3676 17.4496 29.2112 17.4881C29.9912 17.5237 30.4148 17.654 30.6967 17.7635C31.0701 17.9087 31.3366 18.082 31.6165 18.362C31.8965 18.6419 32.0699 18.9084 32.215 19.2819C32.3245 19.5638 32.4549 19.9873 32.4904 20.7673C32.5289 21.6109 32.5371 21.8639 32.5371 24C32.5371 26.1361 32.5289 26.3891 32.4904 27.2327C32.4549 28.0127 32.3245 28.4362 32.215 28.7181C32.0699 29.0916 31.8965 29.3581 31.6165 29.638C31.3366 29.9179 31.0701 30.0913 30.6967 30.2365C30.4148 30.346 29.9912 30.4763 29.2112 30.5119C28.3678 30.5504 28.1148 30.5585 25.9785 30.5585C23.8423 30.5585 23.5893 30.5504 22.7459 30.5119C21.9658 30.4763 21.5422 30.346 21.2603 30.2365C20.8869 30.0913 20.6204 29.9179 20.3405 29.638C20.0606 29.3581 19.8872 29.0916 19.7421 28.7181C19.6325 28.4362 19.5022 28.0127 19.4666 27.2327C19.4281 26.3891 19.42 26.1361 19.42 24C19.42 21.8639 19.4281 21.6109 19.4666 20.7673C19.5022 19.9873 19.6325 19.5638 19.7421 19.2819C19.8872 18.9084 20.0605 18.6419 20.3405 18.362C20.6204 18.082 20.8869 17.9087 21.2603 17.7635C21.5422 17.654 21.9658 17.5237 22.7458 17.4881C23.5894 17.4496 23.8424 17.4415 25.9785 17.4415Z" fill="white"/>
</svg>
