<svg width="52" height="48" viewBox="0 0 52 48" fill="none" xmlns="http://www.w3.org/2000/svg">
<path fill-rule="evenodd" clip-rule="evenodd" d="M25.9997 42C36.3595 42 44.7577 33.9411 44.7577 24C44.7577 14.0589 36.3595 6 25.9997 6C15.6399 6 7.2417 14.0589 7.2417 24C7.2417 33.9411 15.6399 42 25.9997 42Z" fill="#8CB4FF"/>
<path fill-rule="evenodd" clip-rule="evenodd" d="M33.9893 19.539C33.4008 19.8003 32.7678 19.9767 32.104 20.0557C32.7815 19.6495 33.3023 19.0063 33.547 18.24C32.9128 18.6162 32.2105 18.889 31.4628 19.0362C30.864 18.3985 30.0108 18 29.0668 18C27.254 18 25.7843 19.4698 25.7843 21.2825C25.7843 21.5395 25.813 21.7902 25.8693 22.0305C23.1408 21.8935 20.7223 20.5865 19.103 18.6008C18.8205 19.0855 18.6588 19.6492 18.6588 20.251C18.6588 21.3898 19.2383 22.3945 20.1193 22.9833C19.581 22.9662 19.0748 22.8185 18.6323 22.5728C18.6318 22.5863 18.6318 22.6 18.6318 22.614C18.6318 24.2042 19.7635 25.531 21.2653 25.8327C20.9898 25.9077 20.6998 25.9478 20.4005 25.9478C20.1888 25.9478 19.9833 25.9272 19.7828 25.8888C20.2005 27.193 21.4125 28.142 22.849 28.1685C21.7255 29.049 20.3103 29.5737 18.7723 29.5737C18.5073 29.5737 18.246 29.5583 17.9893 29.5278C19.442 30.4593 21.1675 31.0028 23.021 31.0028C29.059 31.0028 32.3608 26.001 32.3608 21.663C32.3608 21.5208 32.3578 21.379 32.3513 21.2383C32.9928 20.7755 33.549 20.1975 33.9893 19.539Z" fill="white"/>
</svg>
