<svg width="80" height="80" viewBox="0 0 80 80" fill="none" xmlns="http://www.w3.org/2000/svg">
<g id="pajamas:nature">
<path id="Vector" fill-rule="evenodd" clip-rule="evenodd" d="M74.9 12.5C74.9681 11.6684 75.0014 10.8344 75 10V5H66.25C59.758 4.99892 53.4409 7.10376 48.247 10.9985C43.0531 14.8932 39.2627 20.3677 37.445 26.6C34.6431 22.9858 31.0508 20.0612 26.9436 18.0505C22.8363 16.0397 18.3231 14.9962 13.75 15H5V20C5 27.9565 8.16071 35.5871 13.7868 41.2132C19.4129 46.8393 27.0435 50 35 50H36.25V71.25C36.25 72.2446 36.6451 73.1984 37.3484 73.9016C38.0516 74.6049 39.0054 75 40 75C40.9946 75 41.9484 74.6049 42.6516 73.9016C43.3549 73.1984 43.75 72.2446 43.75 71.25V40H45C52.5245 40.0011 59.7746 37.1746 65.3128 32.0809C70.8511 26.9872 74.273 19.9983 74.9 12.5ZM43.885 32.5C44.5 26.999 47.1212 21.9178 51.2473 18.2281C55.3734 14.5383 60.7148 12.4989 66.25 12.5H67.365C66.75 18.001 64.1288 23.0822 60.0027 26.7719C55.8766 30.4617 50.5352 32.5011 45 32.5H43.885ZM13.75 22.5C19.2852 22.4989 24.6266 24.5383 28.7527 28.2281C32.8788 31.9178 35.5 36.999 36.115 42.5H35C29.4648 42.5011 24.1234 40.4617 19.9973 36.7719C15.8712 33.0822 13.25 28.001 12.635 22.5H13.75Z" fill="#02B964"/>
</g>
</svg>
