<svg width="80" height="80" viewBox="0 0 80 80" fill="none" xmlns="http://www.w3.org/2000/svg">
<g id="ic:baseline-people">
<path id="Vector" d="M53.3335 36.6665C58.8668 36.6665 63.3002 32.1998 63.3002 26.6665C63.3002 21.1332 58.8668 16.6665 53.3335 16.6665C47.8002 16.6665 43.3335 21.1332 43.3335 26.6665C43.3335 32.1998 47.8002 36.6665 53.3335 36.6665ZM26.6668 36.6665C32.2002 36.6665 36.6335 32.1998 36.6335 26.6665C36.6335 21.1332 32.2002 16.6665 26.6668 16.6665C21.1335 16.6665 16.6668 21.1332 16.6668 26.6665C16.6668 32.1998 21.1335 36.6665 26.6668 36.6665ZM26.6668 43.3332C18.9002 43.3332 3.3335 47.2332 3.3335 54.9998V63.3332H50.0002V54.9998C50.0002 47.2332 34.4335 43.3332 26.6668 43.3332ZM53.3335 43.3332C52.3668 43.3332 51.2668 43.3998 50.1002 43.4998C53.9668 46.2998 56.6668 50.0665 56.6668 54.9998V63.3332H76.6668V54.9998C76.6668 47.2332 61.1002 43.3332 53.3335 43.3332Z" fill="#F26F0E"/>
</g>
</svg>
