<svg width="48" height="46" viewBox="0 0 48 46" fill="none" xmlns="http://www.w3.org/2000/svg">
<path fill-rule="evenodd" clip-rule="evenodd" d="M41.4002 22.4246H8.02725C8.01725 22.4246 8.00925 22.4294 8.00025 22.4304L21.7843 8.63902C22.0133 8.40997 22.0042 8.04581 21.7653 7.82635C21.5262 7.60689 21.1472 7.61456 20.9172 7.8436L6.16725 22.6019C5.94425 22.8243 5.94425 23.1741 6.16725 23.3973L20.9172 38.1547C21.0352 38.2726 21.1923 38.332 21.3503 38.332C21.5002 38.332 21.6493 38.2793 21.7653 38.1729C22.0042 37.9525 22.0133 37.5884 21.7843 37.3593L8.00025 23.5679C8.00925 23.5689 8.01725 23.5737 8.02725 23.5737H41.4002C41.7313 23.5737 42.0003 23.3168 42.0003 22.9996C42.0003 22.6824 41.7313 22.4246 41.4002 22.4246Z" fill="#343434"/>
</svg>
