<svg width="32" height="32" viewBox="0 0 32 32" fill="none" xmlns="http://www.w3.org/2000/svg">
<path d="M4.07324 14.6667H6.66667C8.13943 14.6667 9.33333 15.8606 9.33333 17.3333V18.6667C9.33333 20.1394 10.5272 21.3333 12 21.3333C13.4728 21.3333 14.6667 22.5272 14.6667 24V27.9268M10.6667 5.24736V7.33333C10.6667 9.17428 12.1591 10.6667 14 10.6667H14.6667C16.1394 10.6667 17.3333 11.8606 17.3333 13.3333C17.3333 14.8061 18.5272 16 20 16C21.4728 16 22.6667 14.8061 22.6667 13.3333C22.6667 11.8606 23.8606 10.6667 25.3333 10.6667L26.7526 10.6667M20 27.3172V24C20 22.5272 21.1939 21.3333 22.6667 21.3333H26.7526M28 16C28 22.6274 22.6274 28 16 28C9.37258 28 4 22.6274 4 16C4 9.37258 9.37258 4 16 4C22.6274 4 28 9.37258 28 16Z" stroke="#111827" stroke-width="1.5" stroke-linecap="round" stroke-linejoin="round"/>
</svg>
