<svg width="32" height="32" viewBox="0 0 32 32" fill="none" xmlns="http://www.w3.org/2000/svg">
<g id="Clipboard check">
<path id="Icon" d="M12.5304 18.1363C12.2375 17.8434 11.7626 17.8434 11.4698 18.1363C11.1769 18.4292 11.1769 18.9041 11.4698 19.197L12.5304 18.1363ZM14.6667 21.3333L14.1364 21.8637C14.4293 22.1566 14.9042 22.1566 15.1971 21.8637L14.6667 21.3333ZM20.5304 16.5303C20.8233 16.2374 20.8233 15.7626 20.5304 15.4697C20.2375 15.1768 19.7626 15.1768 19.4698 15.4697L20.5304 16.5303ZM24.5834 9.33333V25.3333H26.0834V9.33333H24.5834ZM22.6667 27.25H9.33341V28.75H22.6667V27.25ZM7.41675 25.3333V9.33333H5.91675V25.3333H7.41675ZM9.33341 7.41667H12.0001V5.91667H9.33341V7.41667ZM20.0001 7.41667H22.6667V5.91667H20.0001V7.41667ZM9.33341 27.25C8.27487 27.25 7.41675 26.3919 7.41675 25.3333H5.91675C5.91675 27.2203 7.44644 28.75 9.33341 28.75V27.25ZM24.5834 25.3333C24.5834 26.3919 23.7253 27.25 22.6667 27.25V28.75C24.5537 28.75 26.0834 27.2203 26.0834 25.3333H24.5834ZM26.0834 9.33333C26.0834 7.44636 24.5537 5.91667 22.6667 5.91667V7.41667C23.7253 7.41667 24.5834 8.27479 24.5834 9.33333H26.0834ZM7.41675 9.33333C7.41675 8.27479 8.27487 7.41667 9.33341 7.41667V5.91667C7.44644 5.91667 5.91675 7.44636 5.91675 9.33333H7.41675ZM11.4698 19.197L14.1364 21.8637L15.1971 20.803L12.5304 18.1363L11.4698 19.197ZM15.1971 21.8637L20.5304 16.5303L19.4698 15.4697L14.1364 20.803L15.1971 21.8637ZM14.6667 4.75H17.3334V3.25H14.6667V4.75ZM17.3334 8.58333H14.6667V10.0833H17.3334V8.58333ZM14.6667 8.58333C13.6082 8.58333 12.7501 7.72521 12.7501 6.66667H11.2501C11.2501 8.55364 12.7798 10.0833 14.6667 10.0833V8.58333ZM19.2501 6.66667C19.2501 7.72521 18.392 8.58333 17.3334 8.58333V10.0833C19.2204 10.0833 20.7501 8.55364 20.7501 6.66667H19.2501ZM17.3334 4.75C18.392 4.75 19.2501 5.60812 19.2501 6.66667H20.7501C20.7501 4.77969 19.2204 3.25 17.3334 3.25V4.75ZM14.6667 3.25C12.7798 3.25 11.2501 4.77969 11.2501 6.66667H12.7501C12.7501 5.60812 13.6082 4.75 14.6667 4.75V3.25Z" fill="#111827"/>
</g>
</svg>
